<svg xmlns="http://www.w3.org/2000/svg" viewBox="0 0 800 420" font-family="Segoe UI, sans-serif">
<rect width="800" height="420" fill="#0d1117" rx="8"/>
<text x="64" y="30" fill="#e6edf3" font-size="17" font-weight="700">★ Star History — timoncool/civitai-mcp-ultimate</text>
<text x="776" y="30" fill="#e6edf3" font-size="14" text-anchor="end">21 stars · updated 2026-10-01</text>
<line x1="64" y1="364.0" x2="776" y2="364.0" stroke="#30363d" stroke-width="1"/><text x="54" y="368.0" fill="#e6edf3" font-size="13" text-anchor="end">0</text><line x1="64" y1="288.8" x2="776" y2="288.8" stroke="#30363d" stroke-width="1"/><text x="54" y="292.8" fill="#e6edf3" font-size="13" text-anchor="end">5</text><line x1="64" y1="213.5" x2="776" y2="213.5" stroke="#30363d" stroke-width="1"/><text x="54" y="217.5" fill="#e6edf3" font-size="13" text-anchor="end">10</text><line x1="64" y1="123.2" x2="776" y2="123.2" stroke="#30363d" stroke-width="1"/><text x="54" y="127.2" fill="#e6edf3" font-size="13" text-anchor="end">16</text><line x1="64" y1="48.0" x2="776" y2="48.0" stroke="#30363d" stroke-width="1"/><text x="54" y="52.0" fill="#e6edf3" font-size="13" text-anchor="end">21</text>
<path d="M64.0,364.0 L64.0,349.0 L66.9,333.9 L80.3,318.9 L86.0,303.8 L104.2,288.8 L108.7,273.7 L162.7,258.7 L225.4,243.6 L228.3,228.6 L232.7,213.5 L232.9,198.5 L240.1,183.4 L365.9,168.4 L382.5,153.3 L386.3,138.3 L392.8,123.2 L454.1,108.2 L502.8,93.1 L587.4,78.1 L610.7,63.0 L720.3,48.0 L776.0,48.0" fill="none" stroke="#4f8ff7" stroke-width="2.5" stroke-linejoin="round"/>
<circle cx="776.0" cy="48.0" r="4" fill="#4f8ff7"/>
<text x="64.0" y="388" fill="#e6edf3" font-size="13" text-anchor="middle">Mar 25, 2026</text><text x="301.3" y="388" fill="#e6edf3" font-size="13" text-anchor="middle">May 27, 2026</text><text x="538.7" y="388" fill="#e6edf3" font-size="13" text-anchor="middle">Jul 30, 2026</text><text x="776.0" y="388" fill="#e6edf3" font-size="13" text-anchor="middle">Oct 01, 2026</text>
</svg>