<svg xmlns="http://www.w3.org/2000/svg" viewBox="0 0 800 420" font-family="Segoe UI, sans-serif">
<rect width="800" height="420" fill="#0d1117" rx="8"/>
<text x="64" y="30" fill="#e6edf3" font-size="17" font-weight="700">★ Star History — timoncool/civitai-mcp-ultimate</text>
<text x="776" y="30" fill="#e6edf3" font-size="14" text-anchor="end">21 stars · updated 2026-09-27</text>
<line x1="64" y1="364.0" x2="776" y2="364.0" stroke="#30363d" stroke-width="1"/><text x="54" y="368.0" fill="#e6edf3" font-size="13" text-anchor="end">0</text><line x1="64" y1="288.8" x2="776" y2="288.8" stroke="#30363d" stroke-width="1"/><text x="54" y="292.8" fill="#e6edf3" font-size="13" text-anchor="end">5</text><line x1="64" y1="213.5" x2="776" y2="213.5" stroke="#30363d" stroke-width="1"/><text x="54" y="217.5" fill="#e6edf3" font-size="13" text-anchor="end">10</text><line x1="64" y1="123.2" x2="776" y2="123.2" stroke="#30363d" stroke-width="1"/><text x="54" y="127.2" fill="#e6edf3" font-size="13" text-anchor="end">16</text><line x1="64" y1="48.0" x2="776" y2="48.0" stroke="#30363d" stroke-width="1"/><text x="54" y="52.0" fill="#e6edf3" font-size="13" text-anchor="end">21</text>
<path d="M64.0,364.0 L64.0,349.0 L67.0,333.9 L80.7,318.9 L86.5,303.8 L105.1,288.8 L109.7,273.7 L164.8,258.7 L228.9,243.6 L231.8,228.6 L236.3,213.5 L236.5,198.5 L243.9,183.4 L372.4,168.4 L389.4,153.3 L393.3,138.3 L399.9,123.2 L462.6,108.2 L512.3,93.1 L598.8,78.1 L622.6,63.0 L734.6,48.0 L776.0,48.0" fill="none" stroke="#4f8ff7" stroke-width="2.5" stroke-linejoin="round"/>
<circle cx="776.0" cy="48.0" r="4" fill="#4f8ff7"/>
<text x="64.0" y="388" fill="#e6edf3" font-size="13" text-anchor="middle">Mar 25, 2026</text><text x="301.3" y="388" fill="#e6edf3" font-size="13" text-anchor="middle">May 26, 2026</text><text x="538.7" y="388" fill="#e6edf3" font-size="13" text-anchor="middle">Jul 27, 2026</text><text x="776.0" y="388" fill="#e6edf3" font-size="13" text-anchor="middle">Sep 27, 2026</text>
</svg>